<svg width="26" height="27" viewBox="0 0 26 27" fill="none" xmlns="http://www.w3.org/2000/svg">
<path fill-rule="evenodd" clip-rule="evenodd" d="M7.58496 19.7919C6.39329 19.7919 5.41829 20.7815 5.41829 21.991C5.41829 23.2005 6.39329 24.1901 7.58496 24.1901C8.77663 24.1901 9.75163 23.2005 9.75163 21.991C9.75163 20.7815 8.77663 19.7919 7.58496 19.7919ZM18.4183 19.7919C17.2266 19.7919 16.2516 20.7815 16.2516 21.991C16.2516 23.2005 17.2266 24.1901 18.4183 24.1901C19.61 24.1901 20.585 23.2005 20.585 21.991C20.585 20.7815 19.61 19.7919 18.4183 19.7919ZM16.9016 14.2942C17.66 14.2942 18.4183 13.8544 18.7433 13.1947L22.6433 6.04763C22.9683 5.27794 22.535 4.39831 21.6683 4.39831H5.63496L4.87663 2.85895C4.76829 2.41913 4.33496 2.19922 3.90163 2.19922H2.16829C1.51829 2.19922 1.08496 2.63904 1.08496 3.29876C1.08496 3.95849 1.51829 4.39831 2.16829 4.39831H3.25163L7.15163 12.7548L5.63496 15.3938C4.87663 16.8232 5.85163 18.6924 7.58496 18.6924H19.5016C20.1516 18.6924 20.585 18.2526 20.585 17.5928C20.585 16.9331 20.1516 16.4933 19.5016 16.4933H7.58496L8.77663 14.2942H16.9016ZM6.71829 6.5974H19.8266L16.7933 12.0951H9.20996L6.71829 6.5974Z" fill="#3B404A"/>
</svg>
