<svg width="20" height="25" viewBox="0 0 20 25" fill="none" xmlns="http://www.w3.org/2000/svg">
<path fill-rule="evenodd" clip-rule="evenodd" d="M9.99091 2.8C6.08808 2.8 2.8 6.26018 2.8 10.6882C2.8 11.4958 3.08085 12.5094 3.5966 13.6615C4.10641 14.8003 4.81467 16.0068 5.59745 17.1807C7.16276 19.5282 8.97733 21.6737 9.95347 22.7794C9.96296 22.7901 9.97031 22.7943 9.97461 22.7962C9.97966 22.7984 9.98516 22.7996 9.99091 22.7996C9.99665 22.7996 10.0022 22.7984 10.0072 22.7962C10.0115 22.7943 10.0189 22.7901 10.0283 22.7794C11.0045 21.6737 12.8191 19.5282 14.3844 17.1807C15.1671 16.0068 15.8754 14.8003 16.3852 13.6615C16.901 12.5094 17.1818 11.4958 17.1818 10.6882C17.1818 6.26018 13.8937 2.8 9.99091 2.8ZM1 10.6882C1 5.40906 4.95676 1 9.99091 1C15.0251 1 18.9818 5.40906 18.9818 10.6882C18.9818 11.8639 18.5872 13.148 18.0281 14.397C17.463 15.6592 16.697 16.957 15.882 18.1793C14.2517 20.6242 12.3769 22.8389 11.3777 23.9707C10.6374 24.8092 9.34441 24.8092 8.6041 23.9707C7.60493 22.8389 5.73011 20.6242 4.09985 18.1793C3.28485 16.957 2.51879 15.6592 1.95371 14.397C1.39458 13.148 1 11.8639 1 10.6882ZM9.99094 7.19251C8.69473 7.19251 7.51973 8.3575 7.51973 9.95427C7.51973 11.551 8.69473 12.716 9.99094 12.716C11.2871 12.716 12.4622 11.551 12.4622 9.95427C12.4622 8.3575 11.2871 7.19251 9.99094 7.19251ZM5.71973 9.95427C5.71973 7.50637 7.56341 5.39251 9.99094 5.39251C12.4185 5.39251 14.2622 7.50637 14.2622 9.95427C14.2622 12.4022 12.4185 14.516 9.99094 14.516C7.56341 14.516 5.71973 12.4022 5.71973 9.95427Z" fill="#3B404A"/>
<path d="M3.5966 13.6615L3.71069 13.6104L3.5966 13.6615ZM5.59745 17.1807L5.49345 17.2501L5.59745 17.1807ZM9.95347 22.7794L10.0472 22.6967L10.0472 22.6967L9.95347 22.7794ZM9.97461 22.7962L9.92378 22.9104L9.9238 22.9104L9.97461 22.7962ZM10.0072 22.7962L10.058 22.9104L10.058 22.9104L10.0072 22.7962ZM10.0283 22.7794L9.93464 22.6967L9.93463 22.6967L10.0283 22.7794ZM14.3844 17.1807L14.2804 17.1114L14.3844 17.1807ZM16.3852 13.6615L16.4993 13.7126L16.3852 13.6615ZM18.0281 14.397L17.914 14.3459L18.0281 14.397ZM15.882 18.1793L15.986 18.2487L15.882 18.1793ZM11.3777 23.9707L11.4714 24.0534L11.3777 23.9707ZM8.6041 23.9707L8.5104 24.0534L8.6041 23.9707ZM4.09985 18.1793L4.20385 18.11H4.20385L4.09985 18.1793ZM1.95371 14.397L2.0678 14.3459L1.95371 14.397ZM2.925 10.6882C2.925 6.31965 6.16631 2.925 9.99091 2.925V2.675C6.00985 2.675 2.675 6.20071 2.675 10.6882H2.925ZM3.71069 13.6104C3.19795 12.4651 2.925 11.4702 2.925 10.6882H2.675C2.675 11.5214 2.96376 12.5538 3.48251 13.7126L3.71069 13.6104ZM5.70145 17.1114C4.92091 15.9408 4.21666 14.7406 3.71069 13.6104L3.48251 13.7126C3.99615 14.8599 4.70843 16.0728 5.49345 17.2501L5.70145 17.1114ZM10.0472 22.6967C9.07263 21.5928 7.26225 19.4521 5.70145 17.1114L5.49345 17.2501C7.06327 19.6044 8.88202 21.7546 9.85977 22.8621L10.0472 22.6967ZM10.0254 22.682C10.0303 22.6841 10.0353 22.6869 10.0399 22.6903C10.0442 22.6934 10.0465 22.6959 10.0472 22.6967L9.85977 22.8621C9.88119 22.8864 9.90319 22.9012 9.92378 22.9104L10.0254 22.682ZM9.99091 22.6746C10.0025 22.6746 10.0143 22.677 10.0254 22.682L9.9238 22.9104C9.94499 22.9198 9.96782 22.9246 9.99091 22.9246V22.6746ZM9.95639 22.682C9.96748 22.677 9.97931 22.6746 9.99091 22.6746V22.9246C10.014 22.9246 10.0368 22.9198 10.058 22.9104L9.95639 22.682ZM9.93463 22.6967C9.93531 22.6959 9.93765 22.6934 9.94192 22.6903C9.94651 22.6869 9.95153 22.6841 9.95638 22.682L10.058 22.9104C10.0786 22.9012 10.1006 22.8864 10.1221 22.8621L9.93463 22.6967ZM14.2804 17.1114C12.7196 19.4521 10.9092 21.5928 9.93464 22.6967L10.1221 22.8621C11.0998 21.7546 12.9186 19.6044 14.4884 17.2501L14.2804 17.1114ZM16.2711 13.6104C15.7652 14.7406 15.0609 15.9408 14.2804 17.1114L14.4884 17.2501C15.2734 16.0728 15.9857 14.8599 16.4993 13.7126L16.2711 13.6104ZM17.0568 10.6882C17.0568 11.4702 16.7839 12.4651 16.2711 13.6104L16.4993 13.7126C17.0181 12.5538 17.3068 11.5214 17.3068 10.6882H17.0568ZM9.99091 2.925C13.8155 2.925 17.0568 6.31965 17.0568 10.6882H17.3068C17.3068 6.20071 13.972 2.675 9.99091 2.675V2.925ZM9.99091 0.875C4.87793 0.875 0.875 5.35025 0.875 10.6882H1.125C1.125 5.46787 5.0356 1.125 9.99091 1.125V0.875ZM19.1068 10.6882C19.1068 5.35025 15.1039 0.875 9.99091 0.875V1.125C14.9462 1.125 18.8568 5.46787 18.8568 10.6882H19.1068ZM18.1422 14.4481C18.7044 13.1923 19.1068 11.8894 19.1068 10.6882H18.8568C18.8568 11.8383 18.4701 13.1037 17.914 14.3459L18.1422 14.4481ZM15.986 18.2487C16.8032 17.023 17.5733 15.7189 18.1422 14.4481L17.914 14.3459C17.3528 15.5996 16.5907 16.8911 15.778 18.11L15.986 18.2487ZM11.4714 24.0534C12.4722 22.9199 14.3512 20.7004 15.986 18.2487L15.778 18.11C14.1522 20.5481 12.2816 22.758 11.284 23.888L11.4714 24.0534ZM8.5104 24.0534C9.30046 24.9483 10.6814 24.9483 11.4714 24.0534L11.284 23.888C10.5935 24.6701 9.38836 24.6701 8.69781 23.888L8.5104 24.0534ZM3.99585 18.2487C5.63062 20.7004 7.50962 22.9199 8.5104 24.0534L8.69781 23.888C7.70024 22.758 5.8296 20.5481 4.20385 18.11L3.99585 18.2487ZM1.83962 14.4481C2.40854 15.7189 3.17861 17.023 3.99585 18.2487L4.20385 18.11C3.39108 16.8911 2.62904 15.5996 2.0678 14.3459L1.83962 14.4481ZM0.875 10.6882C0.875 11.8894 1.27747 13.1923 1.83962 14.4481L2.0678 14.3459C1.51169 13.1037 1.125 11.8383 1.125 10.6882H0.875ZM7.64473 9.95427C7.64473 8.41764 8.77233 7.31751 9.99094 7.31751V7.06751C8.61713 7.06751 7.39473 8.29735 7.39473 9.95427H7.64473ZM9.99094 12.591C8.77233 12.591 7.64473 11.4909 7.64473 9.95427H7.39473C7.39473 11.6112 8.61713 12.841 9.99094 12.841V12.591ZM12.3372 9.95427C12.3372 11.4909 11.2095 12.591 9.99094 12.591V12.841C11.3647 12.841 12.5872 11.6112 12.5872 9.95427H12.3372ZM9.99094 7.31751C11.2095 7.31751 12.3372 8.41764 12.3372 9.95427H12.5872C12.5872 8.29735 11.3647 7.06751 9.99094 7.06751V7.31751ZM9.99094 5.26751C7.48428 5.26751 5.59473 7.44789 5.59473 9.95427H5.84473C5.84473 7.56486 7.64254 5.51751 9.99094 5.51751V5.26751ZM14.3872 9.95427C14.3872 7.44789 12.4976 5.26751 9.99094 5.26751V5.51751C12.3393 5.51751 14.1372 7.56486 14.1372 9.95427H14.3872ZM9.99094 14.641C12.4976 14.641 14.3872 12.4606 14.3872 9.95427H14.1372C14.1372 12.3437 12.3393 14.391 9.99094 14.391V14.641ZM5.59473 9.95427C5.59473 12.4606 7.48428 14.641 9.99094 14.641V14.391C7.64254 14.391 5.84473 12.3437 5.84473 9.95427H5.59473Z" fill="#001A32"/>
</svg>
